<svg width="41" height="40" viewBox="0 0 41 40" fill="none" xmlns="http://www.w3.org/2000/svg">
<path d="M40.5 20.0002C40.5 31.0451 31.5453 40 20.5002 40C9.45402 40 0.5 31.0451 0.5 20.0002C0.5 8.95455 9.45402 0 20.5002 0C31.5453 0 40.5 8.95419 40.5 20.0002Z" fill="#9C9C9C"/>
<path d="M23.9111 11.9879C24.7222 10.9854 25.2717 9.59082 25.1217 8.20557C23.9525 8.25269 22.5337 8.99708 21.6929 9.99747C20.9414 10.8879 20.2827 12.3017 20.4584 13.6645C21.7658 13.7684 23.0981 12.9883 23.9111 11.9879Z" fill="white"/>
<path d="M26.845 20.7923C26.8353 19.8433 27.0727 19.0514 27.4044 18.4088C28.1227 17.0178 29.2834 16.3291 29.3584 16.2791C27.9892 14.2445 25.8589 13.9642 25.1002 13.9328C23.2873 13.746 21.565 15.0188 20.6457 15.0188C19.7274 15.0188 18.3072 13.9588 16.8045 13.987C14.8288 14.017 13.0069 15.1563 11.9891 16.9582C11.6731 17.5162 11.4417 18.1167 11.2843 18.7444C10.42 22.1811 11.7731 26.4079 13.4646 28.8953C14.4428 30.3341 15.6074 31.9515 17.138 31.8929C18.6132 31.8336 19.1694 30.9222 20.9516 30.9222C22.7346 30.9222 23.2359 31.8929 24.795 31.8629C26.379 31.8336 27.3858 30.3977 28.3555 28.9528C29.4776 27.2837 29.9403 25.666 29.9685 25.5832C29.9321 25.5668 26.8764 24.3757 26.845 20.7923Z" fill="white"/>
</svg>
