<svg width="41" height="40" viewBox="0 0 41 40" fill="none" xmlns="http://www.w3.org/2000/svg">
<path d="M20.7839 39.7161C31.6728 39.5592 40.3729 30.6049 40.2161 19.7161C40.0592 8.82717 31.1049 0.127116 20.2161 0.283931C9.32718 0.440747 0.627124 9.39505 0.78394 20.2839C0.940755 31.1728 9.89506 39.8729 20.7839 39.7161Z" fill="#6081C4"/>
<path d="M22.2419 15.382V13.514C22.2419 12.6038 22.8491 12.3919 23.275 12.3919C23.7006 12.3919 25.8952 12.3919 25.8952 12.3919V8.39014L22.2866 8.375C18.2814 8.375 17.3711 11.3602 17.3711 13.2712V15.3824H15.0547V18.2046V20.0533H17.3908C17.3908 25.3472 17.3908 31.7319 17.3908 31.7319H22.0621C22.0621 31.7319 22.0621 25.2831 22.0621 20.0533H25.5292L25.6971 18.2187L25.9551 15.3824L22.2419 15.382Z" fill="white"/>
</svg>
