<svg width="162" height="253" viewBox="0 0 162 253" fill="none" xmlns="http://www.w3.org/2000/svg">
<path d="M161.572 46.5171H0.98999V252.607H161.572V46.5171Z" fill="white"/>
<path d="M161.574 252.608C161.573 251.155 161.507 168.834 161.409 46.5176L161.574 46.6832C113.63 46.6888 58.8847 46.6952 1.00994 46.7016H0.992257L1.17619 46.5176C1.16416 122.967 1.15354 193.944 1.14434 252.608L0.992257 252.456C97.9244 252.547 160.308 252.606 161.574 252.608C160.309 252.609 97.9244 252.668 0.992257 252.76H0.84017V252.607C0.830974 193.944 0.820375 122.966 0.80835 46.5169V46.333H0.992257H1.00994C58.8847 46.3394 113.631 46.3464 161.574 46.3514H161.74V46.5169C161.641 168.834 161.576 251.155 161.574 252.608Z" fill="#263238"/>
<path d="M144.991 147.426H18.0586C17.4906 147.426 17.03 146.965 17.03 146.397V126.172C17.03 125.604 17.4906 125.144 18.0586 125.144H144.991C145.559 125.144 146.019 125.604 146.019 126.172V146.397C146.019 146.965 145.559 147.426 144.991 147.426Z" fill="#EBEBEB"/>
<path d="M145.121 178.028H18.1879C17.6198 178.028 17.1593 177.568 17.1593 177V156.775C17.1593 156.207 17.6198 155.746 18.1879 155.746H145.12C145.688 155.746 146.148 156.207 146.148 156.775V177C146.149 177.568 145.689 178.028 145.121 178.028Z" fill="#EBEBEB"/>
<path d="M31.1205 134.999C31.1205 136.118 30.3106 136.795 28.9707 136.795H27.6974V138.356H26.9611V133.203H28.9707C30.3113 133.203 31.1205 133.88 31.1205 134.999ZM30.3841 134.999C30.3841 134.263 29.8911 133.844 28.9488 133.844H27.6974V136.155H28.9488C29.8911 136.155 30.3841 135.735 30.3841 134.999Z" fill="#263238"/>
<path d="M35.1514 136V138.356H34.4822V137.841C34.2467 138.194 33.8123 138.401 33.2004 138.401C32.3176 138.401 31.7581 137.929 31.7581 137.252C31.7581 136.626 32.1627 136.111 33.3264 136.111H34.4447V135.971C34.4447 135.375 34.0995 135.029 33.3992 135.029C32.9359 135.029 32.4647 135.191 32.1627 135.449L31.8684 134.919C32.273 134.595 32.8552 134.418 33.4798 134.418C34.548 134.418 35.1514 134.933 35.1514 136ZM34.4447 137.163V136.619H33.3553C32.6564 136.619 32.457 136.891 32.457 137.223C32.457 137.613 32.7809 137.856 33.3186 137.856C33.8484 137.855 34.2686 137.612 34.4447 137.163Z" fill="#263238"/>
<path d="M35.9666 137.944L36.2608 137.384C36.5926 137.62 37.1224 137.789 37.6303 137.789C38.2854 137.789 38.5584 137.591 38.5584 137.259C38.5584 136.383 36.0925 137.141 36.0925 135.588C36.0925 134.889 36.7185 134.418 37.7195 134.418C38.2274 134.418 38.8011 134.55 39.1406 134.772L38.8386 135.331C38.4849 135.103 38.0944 135.021 37.7117 135.021C37.0934 135.021 36.7914 135.25 36.7914 135.559C36.7914 136.479 39.2651 135.728 39.2651 137.245C39.2651 137.951 38.6172 138.401 37.5787 138.401C36.9307 138.4 36.2905 138.201 35.9666 137.944Z" fill="#263238"/>
<path d="M39.6527 137.944L39.947 137.384C40.2788 137.62 40.8086 137.789 41.3165 137.789C41.9716 137.789 42.2446 137.591 42.2446 137.259C42.2446 136.383 39.7786 137.141 39.7786 135.588C39.7786 134.889 40.4047 134.418 41.4056 134.418C41.9135 134.418 42.4873 134.55 42.8268 134.772L42.5248 135.331C42.1711 135.103 41.7806 135.021 41.3979 135.021C40.7796 135.021 40.4775 135.25 40.4775 135.559C40.4775 136.479 42.9513 135.728 42.9513 137.245C42.9513 137.951 42.3033 138.401 41.2649 138.401C40.6169 138.4 39.9767 138.201 39.6527 137.944Z" fill="#263238"/>
<path d="M49.6609 134.454L48.2036 138.356H47.5266L46.3997 135.396L45.2594 138.356H44.5818L43.1316 134.454H43.8015L44.9355 137.561L46.1133 134.454H46.7096L47.8655 137.575L49.0292 134.454H49.6609Z" fill="#263238"/>
<path d="M49.9016 136.405C49.9016 135.242 50.7625 134.417 51.9333 134.417C53.1033 134.417 53.9571 135.242 53.9571 136.405C53.9571 137.568 53.1033 138.4 51.9333 138.4C50.7625 138.4 49.9016 137.568 49.9016 136.405ZM53.2433 136.405C53.2433 135.573 52.6845 135.035 51.9333 135.035C51.1827 135.035 50.6154 135.573 50.6154 136.405C50.6154 137.237 51.1827 137.781 51.9333 137.781C52.6845 137.781 53.2433 137.237 53.2433 136.405Z" fill="#263238"/>
<path d="M57.0337 134.418V135.103C56.975 135.096 56.9234 135.096 56.8717 135.096C56.1141 135.096 55.643 135.559 55.643 136.414V138.357H54.9363V134.455H55.6133V135.11C55.863 134.654 56.349 134.418 57.0337 134.418Z" fill="#263238"/>
<path d="M61.5447 132.894V138.356H60.8671V137.738C60.5509 138.179 60.0507 138.401 59.4756 138.401C58.3353 138.401 57.5034 137.598 57.5034 136.406C57.5034 135.213 58.3353 134.418 59.4756 134.418C60.0281 134.418 60.5141 134.625 60.8381 135.043V132.894H61.5447ZM60.8451 136.405C60.8451 135.573 60.2785 135.036 59.535 135.036C58.7838 135.036 58.2172 135.573 58.2172 136.405C58.2172 137.237 58.7845 137.782 59.535 137.782C60.2785 137.782 60.8451 137.237 60.8451 136.405Z" fill="#263238"/>
<path d="M26.5389 167.823C26.5389 166.299 27.7019 165.188 29.2695 165.188C30.0646 165.188 30.7571 165.46 31.2283 165.991L30.7493 166.454C30.3511 166.035 29.8658 165.844 29.2992 165.844C28.1355 165.844 27.2746 166.683 27.2746 167.824C27.2746 168.965 28.1362 169.804 29.2992 169.804C29.8658 169.804 30.3511 169.606 30.7493 169.185L31.2283 169.65C30.7571 170.179 30.0646 170.459 29.2624 170.459C27.7012 170.459 26.5389 169.347 26.5389 167.823Z" fill="#263238"/>
<path d="M31.651 168.449C31.651 167.286 32.5119 166.461 33.6826 166.461C34.8527 166.461 35.7065 167.286 35.7065 168.449C35.7065 169.613 34.8527 170.444 33.6826 170.444C32.5119 170.444 31.651 169.613 31.651 168.449ZM34.9934 168.449C34.9934 167.617 34.4339 167.08 33.6826 167.08C32.9321 167.08 32.3648 167.618 32.3648 168.449C32.3648 169.28 32.9321 169.826 33.6826 169.826C34.4339 169.826 34.9934 169.281 34.9934 168.449Z" fill="#263238"/>
<path d="M40.3882 168.155V170.4H39.6815V168.236C39.6815 167.47 39.2988 167.095 38.6289 167.095C37.8776 167.095 37.3924 167.544 37.3924 168.39V170.4H36.6857V166.498H37.3626V167.087C37.6498 166.69 38.15 166.461 38.7682 166.461C39.7183 166.461 40.3882 167.006 40.3882 168.155Z" fill="#263238"/>
<path d="M43.0862 164.894C43.3883 164.894 43.6826 164.967 43.8813 165.121L43.6677 165.659C43.5199 165.549 43.3289 165.475 43.1223 165.475C42.7028 165.475 42.4892 165.711 42.4892 166.16V166.498H43.6231V167.079H42.504V170.399H41.7973V167.079H41.1345V166.498H41.7973V166.152C41.798 165.394 42.2543 164.894 43.0862 164.894ZM44.7578 165.29C44.7578 165.033 44.9636 164.827 45.236 164.827C45.509 164.827 45.7149 165.026 45.7149 165.276C45.7149 165.542 45.5161 165.747 45.236 165.747C44.9636 165.747 44.7578 165.548 44.7578 165.29ZM44.8823 166.498H45.589V170.4H44.8823V166.498Z" fill="#263238"/>
<path d="M49.032 166.461V167.146C48.9726 167.138 48.9217 167.138 48.87 167.138C48.1124 167.138 47.6413 167.602 47.6413 168.456V170.399H46.9346V166.497H47.6115V167.153C47.8605 166.697 48.3473 166.461 49.032 166.461Z" fill="#263238"/>
<path d="M56.3771 168.155V170.4H55.6705V168.236C55.6705 167.47 55.3019 167.095 54.6617 167.095C53.955 167.095 53.4917 167.544 53.4917 168.39V170.4H52.785V168.236C52.785 167.47 52.4165 167.095 51.7763 167.095C51.0696 167.095 50.6062 167.544 50.6062 168.39V170.4H49.8995V166.498H50.5765V167.08C50.8566 166.681 51.3349 166.461 51.9234 166.461C52.5197 166.461 53.0206 166.697 53.2781 167.183C53.5723 166.742 54.117 166.461 54.7798 166.461C55.7292 166.461 56.3771 167.006 56.3771 168.155Z" fill="#263238"/>
<path d="M63.9184 167.043C63.9184 168.162 63.1091 168.839 61.7686 168.839H60.4953V170.4H59.7589V165.247H61.7686C63.1084 165.247 63.9184 165.924 63.9184 167.043ZM63.182 167.043C63.182 166.307 62.6889 165.887 61.7467 165.887H60.4953V168.199H61.7467C62.6882 168.199 63.182 167.779 63.182 167.043Z" fill="#263238"/>
<path d="M67.9486 168.044V170.4H67.2794V169.884C67.0438 170.237 66.6095 170.444 65.9983 170.444C65.1155 170.444 64.5559 169.973 64.5559 169.295C64.5559 168.67 64.9606 168.155 66.1242 168.155H67.2426V168.015C67.2426 167.418 66.8974 167.072 66.1978 167.072C65.7345 167.072 65.2633 167.234 64.9612 167.493L64.667 166.962C65.0716 166.638 65.6531 166.462 66.2784 166.462C67.3452 166.461 67.9486 166.977 67.9486 168.044ZM67.2419 169.207V168.662H66.1525C65.4536 168.662 65.2541 168.934 65.2541 169.266C65.2541 169.656 65.5781 169.899 66.1157 169.899C66.6456 169.899 67.0657 169.656 67.2419 169.207Z" fill="#263238"/>
<path d="M68.7644 169.988L69.0587 169.428C69.3905 169.664 69.9203 169.833 70.4275 169.833C71.0825 169.833 71.3556 169.635 71.3556 169.303C71.3556 168.427 68.8896 169.185 68.8896 167.632C68.8896 166.933 69.5157 166.462 70.5167 166.462C71.0246 166.462 71.5982 166.594 71.9378 166.815L71.6357 167.374C71.282 167.147 70.8915 167.065 70.5088 167.065C69.8906 167.065 69.5885 167.293 69.5885 167.602C69.5885 168.523 72.0623 167.771 72.0623 169.289C72.0623 169.995 71.4143 170.445 70.3759 170.445C69.7286 170.444 69.0884 170.245 68.7644 169.988Z" fill="#263238"/>
<path d="M72.4478 169.988L72.742 169.428C73.0738 169.664 73.6036 169.833 74.1115 169.833C74.7666 169.833 75.0396 169.635 75.0396 169.303C75.0396 168.427 72.5737 169.185 72.5737 167.632C72.5737 166.933 73.1997 166.462 74.2007 166.462C74.7086 166.462 75.2823 166.594 75.6218 166.815L75.3198 167.374C74.9661 167.147 74.5756 167.065 74.1929 167.065C73.5746 167.065 73.2726 167.293 73.2726 167.602C73.2726 168.523 75.7464 167.771 75.7464 169.289C75.7464 169.995 75.0984 170.445 74.0599 170.445C73.4119 170.444 72.7717 170.245 72.4478 169.988Z" fill="#263238"/>
<path d="M82.4587 166.498L81.0014 170.4H80.3245L79.1976 167.44L78.0573 170.4H77.3796L75.9294 166.498H76.5993L77.7333 169.605L78.9111 166.498H79.5074L80.6633 169.619L81.8263 166.498H82.4587Z" fill="#263238"/>
<path d="M82.6995 168.449C82.6995 167.286 83.5604 166.461 84.7311 166.461C85.9011 166.461 86.7549 167.286 86.7549 168.449C86.7549 169.613 85.9011 170.444 84.7311 170.444C83.5604 170.444 82.6995 169.613 82.6995 168.449ZM86.0412 168.449C86.0412 167.617 85.4824 167.08 84.7311 167.08C83.9799 167.08 83.4132 167.618 83.4132 168.449C83.4132 169.28 83.9806 169.826 84.7311 169.826C85.4824 169.826 86.0412 169.281 86.0412 168.449Z" fill="#263238"/>
<path d="M89.8295 166.461V167.146C89.7707 167.138 89.7191 167.138 89.6675 167.138C88.9098 167.138 88.4387 167.602 88.4387 168.456V170.399H87.7313V166.497H88.4083V167.153C88.658 166.697 89.1447 166.461 89.8295 166.461Z" fill="#263238"/>
<path d="M94.3398 164.938V170.4H93.6621V169.782C93.3459 170.223 92.8458 170.445 92.2707 170.445C91.1303 170.445 90.2985 169.642 90.2985 168.45C90.2985 167.258 91.1303 166.462 92.2707 166.462C92.8231 166.462 93.3091 166.668 93.6331 167.087V164.938L94.3398 164.938ZM93.6402 168.449C93.6402 167.617 93.0735 167.08 92.3301 167.08C91.5788 167.08 91.0122 167.618 91.0122 168.449C91.0122 169.28 91.5795 169.826 92.3301 169.826C93.0735 169.826 93.6402 169.281 93.6402 168.449Z" fill="#263238"/>
<path d="M144.368 212.541H17.4363C16.8682 212.541 16.4077 212.08 16.4077 211.512V191.287C16.4077 190.719 16.8682 190.258 17.4363 190.258H144.368C144.936 190.258 145.397 190.719 145.397 191.287V211.512C145.398 212.08 144.937 212.541 144.368 212.541Z" fill="#124559"/>
<path d="M64.9459 201.569C64.9459 200.001 66.1457 198.889 67.7805 198.889C68.7305 198.889 69.4959 199.235 69.996 199.861L69.0686 200.7C68.7446 200.31 68.3478 200.096 67.854 200.096C67.0073 200.096 66.4187 200.685 66.4187 201.568C66.4187 202.452 67.0073 203.041 67.854 203.041C68.3471 203.041 68.7446 202.827 69.0686 202.437L69.996 203.276C69.4959 203.902 68.7305 204.248 67.7805 204.248C66.1457 204.248 64.9459 203.137 64.9459 201.569Z" fill="white"/>
<path d="M74.826 201.864V204.146H73.4267V202.092C73.4267 201.519 73.1764 201.275 72.7717 201.275C72.3225 201.275 71.9766 201.555 71.9766 202.218V204.147H70.5774V198.684H71.9766V200.525C72.2857 200.238 72.7052 200.09 73.1763 200.09C74.1115 200.089 74.826 200.627 74.826 201.864Z" fill="white"/>
<path d="M79.439 201.929V204.146H78.1359V203.631C77.9379 204.013 77.5396 204.212 76.9581 204.212C76.001 204.212 75.4712 203.675 75.4712 202.983C75.4712 202.247 76.0088 201.79 77.2453 201.79H78.0405C78.0185 201.386 77.7455 201.157 77.1937 201.157C76.811 201.157 76.3844 201.289 76.1121 201.502L75.641 200.553C76.0972 200.251 76.7749 200.089 77.4002 200.089C78.6955 200.089 79.439 200.664 79.439 201.929ZM78.0405 202.865V202.519H77.4363C76.9871 202.519 76.8251 202.681 76.8251 202.923C76.8251 203.159 77.0169 203.328 77.3479 203.328C77.6578 203.329 77.9301 203.182 78.0405 202.865Z" fill="white"/>
<path d="M84.5713 201.863V204.146H83.1728V202.092C83.1728 201.518 82.9223 201.275 82.5177 201.275C82.0685 201.275 81.7226 201.555 81.7226 202.217V204.146H80.3234V200.156H81.6561V200.59C81.9723 200.258 82.4215 200.089 82.9223 200.089C83.8568 200.089 84.5713 200.626 84.5713 201.863Z" fill="white"/>
<path d="M89.7987 200.155V203.416C89.7987 204.926 88.9449 205.64 87.4573 205.64C86.6919 205.64 85.9633 205.463 85.4766 205.117L85.9852 204.138C86.3162 204.403 86.8609 204.564 87.3321 204.564C88.0833 204.564 88.3995 204.226 88.3995 203.6V203.468C88.1272 203.784 87.7225 203.939 87.2139 203.939C86.1543 203.939 85.2559 203.188 85.2559 202.01C85.2559 200.839 86.1543 200.088 87.2139 200.088C87.7657 200.088 88.1937 200.265 88.4653 200.64V200.154H89.7987V200.155ZM88.4137 202.011C88.4137 201.524 88.0458 201.2 87.5457 201.2C87.0449 201.2 86.67 201.524 86.67 202.011C86.67 202.496 87.0449 202.828 87.5457 202.828C88.0458 202.828 88.4137 202.497 88.4137 202.011Z" fill="white"/>
<path d="M94.7518 202.504H91.8508C91.9689 202.909 92.3141 203.145 92.8298 203.145C93.2203 203.145 93.4778 203.034 93.7501 202.799L94.4865 203.564C94.1038 203.991 93.5443 204.212 92.786 204.212C91.3655 204.212 90.4452 203.336 90.4452 202.143C90.4452 200.944 91.3797 200.089 92.6388 200.089C93.8166 200.089 94.7744 200.841 94.7744 202.158C94.7744 202.261 94.7589 202.393 94.7518 202.504ZM91.8296 201.768H93.4637C93.3901 201.349 93.0809 201.083 92.6466 201.083C92.2123 201.083 91.9102 201.349 91.8296 201.768Z" fill="white"/>
<path d="M68.9038 93.5457H67.7239V95.5774H65.5607V87.9312H69.0559C71.142 87.9312 72.4535 89.0128 72.4535 90.76C72.4535 91.8855 71.9074 92.7153 70.9567 93.1744L72.6063 95.5774H70.291L68.9038 93.5457ZM68.9251 89.6353H67.7239V91.8749H68.9251C69.8213 91.8749 70.2684 91.4596 70.2684 90.7607C70.2684 90.0505 69.8206 89.6353 68.9251 89.6353Z" fill="#263238"/>
<path d="M79.5654 93.1418H75.2617C75.4364 93.7424 75.9499 94.0918 76.7146 94.0918C77.2933 94.0918 77.676 93.9284 78.0806 93.579L79.1728 94.7151C78.6048 95.3482 77.7743 95.6764 76.6496 95.6764C74.5415 95.6764 73.1763 94.3762 73.1763 92.607C73.1763 90.8265 74.5635 89.5596 76.4317 89.5596C78.1797 89.5596 79.6001 90.6737 79.6001 92.6289C79.5987 92.781 79.5768 92.9777 79.5654 93.1418ZM75.2291 92.0496H77.654C77.5451 91.4271 77.086 91.0338 76.4416 91.0338C75.7971 91.0338 75.3494 91.4264 75.2291 92.0496Z" fill="#263238"/>
<path d="M80.0927 95.0645L80.7152 93.6441C81.262 93.9829 82.0585 94.1909 82.7794 94.1909C83.4783 94.1909 83.7082 94.0381 83.7082 93.787C83.7082 92.9897 80.2129 93.8959 80.2129 91.5254C80.2129 90.4113 81.2394 89.5596 83.0963 89.5596C83.9268 89.5596 84.8442 89.7343 85.4342 90.0618L84.8117 91.4709C84.2217 91.1434 83.6318 91.0338 83.1076 91.0338C82.4087 91.0338 82.1568 91.2304 82.1568 91.449C82.1568 92.2682 85.6414 91.3832 85.6414 93.7318C85.6414 94.824 84.6369 95.6764 82.7143 95.6764C81.709 95.6764 80.6713 95.4246 80.0927 95.0645Z" fill="#263238"/>
<path d="M92.5554 93.1418H88.2517C88.4264 93.7424 88.94 94.0918 89.7047 94.0918C90.2833 94.0918 90.666 93.9284 91.0706 93.579L92.1628 94.7151C91.5948 95.3482 90.7643 95.6764 89.6395 95.6764C87.5315 95.6764 86.1663 94.3762 86.1663 92.607C86.1663 90.8265 87.5535 89.5596 89.4217 89.5596C91.1697 89.5596 92.5901 90.6737 92.5901 92.6289C92.5887 92.781 92.5668 92.9777 92.5554 93.1418ZM88.2191 92.0496H90.6441C90.5351 91.4271 90.076 91.0338 89.4316 91.0338C88.7871 91.0338 88.3394 91.4264 88.2191 92.0496Z" fill="#263238"/>
<path d="M97.6357 95.3372C97.2756 95.5664 96.7401 95.6761 96.194 95.6761C94.6759 95.6761 93.791 94.9333 93.791 93.4145V91.4261H92.928V89.8754H93.791V88.3354H95.8672V89.8754H97.2218V91.4261H95.8672V93.3926C95.8672 93.8298 96.1176 94.0703 96.4897 94.0703C96.7189 94.0703 96.9481 94.0045 97.1235 93.8843L97.6357 95.3372Z" fill="#263238"/>
<path d="M43.0952 105.1V107.842H40.932V105.068L38.0154 100.196H40.2988L42.1119 103.233L43.9249 100.196H46.0224L43.0952 105.1Z" fill="#263238"/>
<path d="M45.4457 104.871C45.4457 103.091 46.8548 101.824 48.7888 101.824C50.7441 101.824 52.1313 103.091 52.1313 104.871C52.1313 106.662 50.7441 107.941 48.7888 107.941C46.8555 107.941 45.4457 106.662 45.4457 104.871ZM50.0339 104.871C50.0339 103.976 49.4984 103.473 48.7888 103.473C48.0899 103.473 47.5431 103.976 47.5431 104.871C47.5431 105.778 48.0892 106.291 48.7888 106.291C49.4984 106.291 50.0339 105.778 50.0339 104.871Z" fill="#263238"/>
<path d="M59.318 101.922V107.843H57.3408V107.209C56.8923 107.701 56.2592 107.941 55.5822 107.941C54.1293 107.941 53.0696 107.111 53.0696 105.232V101.922H55.145V104.893C55.145 105.81 55.5058 106.171 56.1283 106.171C56.7402 106.171 57.2425 105.767 57.2425 104.773V101.922H59.318Z" fill="#263238"/>
<path d="M64.6176 101.824V103.691C64.4316 103.669 64.3007 103.659 64.1479 103.659C63.3068 103.659 62.7275 104.085 62.7275 105.122V107.842H60.652V101.921H62.6292V102.632C63.055 102.097 63.7433 101.824 64.6176 101.824Z" fill="#263238"/>
<path d="M75.6613 103.025C75.6613 104.762 74.3498 105.843 72.2637 105.843H70.9309V107.842H68.7677V100.195H72.263C74.3505 100.196 75.6613 101.278 75.6613 103.025ZM73.4761 103.025C73.4761 102.315 73.0283 101.9 72.1328 101.9H70.9316V104.14H72.1328C73.0283 104.139 73.4761 103.724 73.4761 103.025Z" fill="#263238"/>
<path d="M82.1077 104.554V107.842H80.1751V107.078C79.8802 107.646 79.2902 107.941 78.4272 107.941C77.0067 107.941 76.2201 107.143 76.2201 106.116C76.2201 105.024 77.018 104.347 78.853 104.347H80.033C79.9997 103.746 79.5958 103.408 78.7773 103.408C78.2086 103.408 77.5755 103.604 77.1708 103.921L76.4719 102.512C77.1489 102.064 78.1541 101.824 79.0822 101.824C81.0049 101.824 82.1077 102.675 82.1077 104.554ZM80.033 105.941V105.428H79.1367C78.471 105.428 78.2305 105.668 78.2305 106.028C78.2305 106.378 78.5142 106.63 79.0065 106.63C79.4649 106.63 79.8695 106.411 80.033 105.941Z" fill="#263238"/>
<path d="M82.9514 107.329L83.5739 105.909C84.1207 106.248 84.9173 106.455 85.6388 106.455C86.3377 106.455 86.5676 106.302 86.5676 106.051C86.5676 105.254 83.0724 106.16 83.0724 103.79C83.0724 102.675 84.0988 101.824 85.9557 101.824C86.7862 101.824 87.7037 101.998 88.2937 102.326L87.6711 103.735C87.0812 103.408 86.4912 103.298 85.967 103.298C85.2681 103.298 85.0163 103.495 85.0163 103.713C85.0163 104.532 88.5009 103.647 88.5009 105.996C88.5009 107.088 87.4964 107.941 85.5737 107.941C84.5678 107.941 83.5301 107.689 82.9514 107.329Z" fill="#263238"/>
<path d="M88.9257 107.329L89.5482 105.909C90.0943 106.248 90.8915 106.455 91.6131 106.455C92.312 106.455 92.5419 106.302 92.5419 106.051C92.5419 105.254 89.0466 106.16 89.0466 103.79C89.0466 102.675 90.0731 101.824 91.93 101.824C92.7604 101.824 93.6779 101.998 94.2679 102.326L93.6454 103.735C93.0554 103.408 92.4655 103.298 91.9413 103.298C91.2424 103.298 90.9905 103.495 90.9905 103.713C90.9905 104.532 94.4752 103.647 94.4752 105.996C94.4752 107.088 93.4707 107.941 91.548 107.941C90.5421 107.941 89.505 107.689 88.9257 107.329Z" fill="#263238"/>
<path d="M105.07 101.922L102.962 107.843H100.953L99.8384 104.621L98.6804 107.843H96.67L94.5626 101.922H96.5285L97.7409 105.505L98.9966 101.922H100.766L101.99 105.537L103.246 101.922H105.07Z" fill="#263238"/>
<path d="M105.171 104.871C105.171 103.091 106.58 101.824 108.514 101.824C110.469 101.824 111.856 103.091 111.856 104.871C111.856 106.662 110.469 107.941 108.514 107.941C106.58 107.941 105.171 106.662 105.171 104.871ZM109.758 104.871C109.758 103.976 109.223 103.473 108.513 103.473C107.814 103.473 107.268 103.976 107.268 104.871C107.268 105.778 107.814 106.291 108.513 106.291C109.223 106.291 109.758 105.778 109.758 104.871Z" fill="#263238"/>
<path d="M116.784 101.824V103.691C116.599 103.669 116.468 103.659 116.315 103.659C115.474 103.659 114.895 104.085 114.895 105.122V107.842H112.819V101.921H114.797V102.632C115.223 102.097 115.912 101.824 116.784 101.824Z" fill="#263238"/>
<path d="M123.875 99.7368V107.842H121.897V107.252C121.503 107.722 120.925 107.94 120.16 107.94C118.544 107.94 117.244 106.761 117.244 104.871C117.244 102.992 118.544 101.824 120.16 101.824C120.848 101.824 121.406 102.02 121.798 102.436V99.7375H123.875V99.7368ZM121.832 104.871C121.832 103.976 121.297 103.473 120.598 103.473C119.888 103.473 119.352 103.976 119.352 104.871C119.352 105.778 119.888 106.291 120.598 106.291C121.297 106.291 121.832 105.778 121.832 104.871Z" fill="#263238"/>
<path d="M102.699 54.2523L97.1116 53.0879L104.205 19.0566C104.526 17.5152 104.024 15.214 103.102 13.9372C94.1971 1.61012 79.7069 6.61918 77.4878 17.2669L71.1495 47.677L65.5625 46.5127L72.7008 12.2635C73.4478 8.6784 75.7582 5.59841 79.0143 3.92047C97.014 -5.35489 112.117 9.06464 109.037 23.8421L102.699 54.2523Z" fill="#E0E0E0"/>
<path d="M102.695 54.2521C102.695 54.2521 102.733 54.0413 102.813 53.6423C102.894 53.2391 103.014 52.6484 103.171 51.8753C103.489 50.3225 103.956 48.0412 104.557 45.1048C105.161 42.1698 105.899 38.5819 106.756 34.4168C107.186 32.3356 107.646 30.1109 108.133 27.751C108.574 25.3883 109.305 22.916 109.329 20.2413C109.389 17.5758 108.812 14.771 107.593 12.1317C107.436 11.8042 107.289 11.4682 107.122 11.1421C106.935 10.8259 106.748 10.5083 106.559 10.1885C106.21 9.53135 105.719 8.95907 105.289 8.33869C105.069 8.03168 104.796 7.76428 104.55 7.47354C104.289 7.19624 104.063 6.88216 103.771 6.63103C103.203 6.11251 102.663 5.55014 102.019 5.09953C100.809 4.09927 99.3882 3.35014 97.9296 2.65831C97.5504 2.51683 97.1698 2.37535 96.7878 2.23316L96.2142 2.01882C96.0182 1.9594 95.8187 1.91342 95.62 1.85966C95.2224 1.75567 94.8234 1.65169 94.423 1.54699C94.0191 1.46069 93.6046 1.41329 93.1943 1.34397C89.8993 0.814129 86.368 1.28313 83.1246 2.63426C81.5004 3.31831 79.9809 4.27329 78.5647 5.3839C77.1683 6.52705 75.9431 7.89302 74.8827 9.39765C73.8471 10.9242 73.0604 12.6255 72.4747 14.4095C71.9583 16.212 71.6294 18.105 71.2219 19.9859C69.6501 27.5324 68.0224 35.3463 66.355 43.349C66.1322 44.4172 65.9101 45.4825 65.6901 46.5387L65.5868 46.3809C67.4869 46.7771 69.3593 47.1676 71.1738 47.5453L71.0161 47.6486C72.2781 41.6004 73.5118 35.6837 74.7115 29.9333C75.3114 27.0585 75.9027 24.2253 76.4849 21.4389C76.7757 20.0454 77.0643 18.6638 77.3501 17.2943C77.6578 15.9156 78.148 14.5928 78.8215 13.3796C80.2066 10.9773 82.2927 9.04537 84.7056 7.91637C85.0112 7.78409 85.3005 7.61644 85.616 7.51528L86.5497 7.18492C87.1871 7.02364 87.816 6.8284 88.4654 6.75978C89.107 6.63882 89.7556 6.62891 90.3987 6.5985C90.7198 6.59496 91.0403 6.6275 91.36 6.64023L91.8382 6.6664L92.3101 6.73997C93.577 6.88357 94.7796 7.29528 95.9206 7.76923C97.0524 8.28068 98.0881 8.94775 99.0247 9.70961C100.854 11.2807 102.257 13.2629 103.008 15.4147C103.429 16.4765 103.616 17.5907 103.763 18.6808C103.833 19.7794 103.845 20.8709 103.662 21.9221C103.621 22.1852 103.58 22.447 103.538 22.7073C103.484 22.9634 103.431 23.2187 103.377 23.4727C103.271 23.9806 103.165 24.4843 103.061 24.983C102.852 25.9804 102.647 26.9594 102.446 27.9187C101.64 31.7556 100.9 35.2819 100.232 38.4624C98.8916 44.8176 97.8433 49.7885 97.1458 53.0948L97.1154 53.0488C99.0119 53.4549 100.402 53.752 101.324 53.9493C101.781 54.0491 102.122 54.1227 102.353 54.1729C102.581 54.2238 102.695 54.2521 102.695 54.2521C102.695 54.2521 102.589 54.2344 102.364 54.1906C102.134 54.1446 101.796 54.0774 101.34 53.9861C100.411 53.798 99.0112 53.5136 97.1005 53.1259L97.0623 53.1182L97.0701 53.0793C97.7513 49.7701 98.7764 44.7935 100.086 38.4327C100.744 35.2501 101.474 31.7216 102.269 27.8826C102.468 26.9226 102.671 25.9436 102.877 24.9455C102.98 24.4468 103.085 23.9424 103.19 23.4345C103.243 23.1805 103.296 22.9252 103.349 22.6684C103.389 22.4116 103.429 22.1534 103.469 21.8938C103.647 20.8574 103.633 19.7829 103.563 18.7006C103.416 17.6275 103.229 16.5303 102.813 15.4862C102.071 13.369 100.686 11.4208 98.8846 9.87797C97.9621 9.13026 96.9428 8.47592 95.8293 7.97508C94.7067 7.51103 93.5247 7.10711 92.2789 6.96846L91.8149 6.89631L91.3445 6.87155C91.0304 6.85952 90.7156 6.82769 90.4001 6.83193C89.7684 6.86306 89.131 6.87226 88.5007 6.99251C87.8634 7.06042 87.2451 7.25354 86.6198 7.412L85.703 7.73811C85.3924 7.83785 85.1088 8.00338 84.8088 8.13354C82.4398 9.24486 80.394 11.1442 79.0365 13.5027C78.3772 14.6946 77.8969 15.9913 77.5955 17.3466C77.3105 18.7169 77.0233 20.0984 76.7332 21.492C76.1532 24.2791 75.5639 27.1122 74.9654 29.9878C73.7678 35.7382 72.5356 41.6555 71.2764 47.7045L71.2495 47.8346L71.1186 47.8077C69.3042 47.43 67.4317 47.0395 65.5316 46.6434L65.4008 46.6158L65.4283 46.4849C65.6483 45.4288 65.8705 44.3634 66.0933 43.2946C67.762 35.2918 69.3912 27.4787 70.9651 19.9322C71.3747 18.047 71.6994 16.171 72.2264 14.3324C72.8214 12.5243 73.62 10.7997 74.6712 9.25335C75.7464 7.72891 76.99 6.34595 78.4055 5.18866C79.8415 4.06461 81.3822 3.09901 83.0276 2.40718C86.3142 1.0412 89.8922 0.571494 93.2276 1.11124C93.6435 1.18198 94.0623 1.23008 94.4711 1.3185L95.8598 1.68281C96.1116 1.76275 96.3634 1.84268 96.6153 1.92262L97.752 2.34776C97.9254 2.42133 98.0987 2.4949 98.2713 2.56847C99.6578 3.23695 101 3.96769 102.154 4.92338C102.804 5.38107 103.35 5.94981 103.923 6.47541C104.218 6.73078 104.448 7.04769 104.711 7.32923C104.959 7.62422 105.234 7.89444 105.457 8.20569C105.891 8.83386 106.386 9.41392 106.737 10.0789C106.927 10.4022 107.117 10.7233 107.305 11.0438C107.473 11.3741 107.621 11.713 107.779 12.0454C109.007 14.7158 109.583 17.5518 109.517 20.2434C109.486 22.9499 108.744 25.4329 108.294 27.8005C107.796 30.166 107.327 32.3972 106.888 34.484C106.009 38.6505 105.251 42.2398 104.631 45.1755C104.012 48.0992 103.53 50.3706 103.202 51.917C103.038 52.681 102.912 53.2646 102.828 53.6636C102.743 54.0569 102.695 54.2521 102.695 54.2521Z" fill="#263238"/>
<path d="M104.337 78.6046L54.1766 68.1501L63.0969 25.3506L113.019 35.7556C114.451 36.0542 115.37 37.4569 115.071 38.8887L107.182 76.7399C106.911 78.0408 105.637 78.8756 104.337 78.6046Z" fill="#455A64"/>
<g opacity="0.3">
<path d="M104.1 78.5895L54.2036 68.1901L63.1239 25.3906L112.784 35.7405C114.361 36.0695 115.373 37.6144 115.044 39.1919L107.265 76.5175C106.962 77.9635 105.546 78.8909 104.1 78.5895Z" fill="black"/>
</g>
<path d="M97.0609 77.0875L54.6915 68.2571C53.085 67.9225 52.0544 66.3485 52.389 64.7427L60.1165 27.6661C60.4405 26.1119 61.9628 25.1145 63.517 25.4385L106.609 34.4196C108.163 34.7436 109.16 36.2659 108.836 37.82L101.22 74.3626C100.825 76.2634 98.9624 77.4836 97.0609 77.0875Z" fill="#455A64"/>
<g opacity="0.3">
<path d="M88.1634 48.9682C88.8637 45.6067 86.6546 42.3159 83.2492 41.7117C80.0723 41.148 76.9074 43.2737 76.2219 46.4265C75.6249 49.1755 76.9958 51.8636 79.3642 53.1058L73.7467 60.5376L84.0082 62.8735L82.6245 53.7856C85.2766 53.5931 87.5947 51.6994 88.1634 48.9682Z" fill="black"/>
</g>
<path d="M101.372 73.7923C101.3 73.7767 102.827 66.3179 104.782 57.1345C106.738 47.9476 108.381 40.5157 108.453 40.5313C108.526 40.5468 106.999 48.0035 105.044 57.1904C103.088 66.3738 101.445 73.8078 101.372 73.7923Z" fill="#263238"/>
<path d="M97.8986 33.9556C97.8844 34.0285 91.2972 32.8075 83.1876 31.2293C75.0752 29.6504 68.512 28.3127 68.5261 28.2399C68.5403 28.1677 75.1261 29.388 83.2385 30.9669C91.3488 32.5451 97.9127 33.8835 97.8986 33.9556Z" fill="white"/>
<path d="M75.3465 49.654C75.331 49.659 75.2631 49.5111 75.1768 49.2296C75.0898 48.9487 74.9971 48.5307 74.9525 48.0044C74.8549 46.9617 75.0233 45.4386 75.8361 44.021C76.651 42.6041 77.8818 41.6916 78.8319 41.2502C79.3094 41.0238 79.7168 40.8929 80.0033 40.8271C80.2898 40.7599 80.4518 40.7444 80.4553 40.7599C80.4688 40.8088 79.8279 40.9347 78.9174 41.4192C78.0134 41.8925 76.8505 42.7944 76.0681 44.154C75.2885 45.5143 75.0947 46.9737 75.1414 47.9931C75.181 49.0237 75.3953 49.6413 75.3465 49.654Z" fill="white"/>
<path d="M77.1162 52.9784C77.0659 53.0321 76.7434 52.8135 76.3968 52.4895C76.0494 52.1656 75.8089 51.8593 75.8598 51.8055C75.9101 51.7517 76.2326 51.9703 76.5793 52.2943C76.9259 52.6183 77.1664 52.9246 77.1162 52.9784Z" fill="white"/>
<path d="M92.2299 2.54647C92.2264 2.56981 91.8593 2.52524 91.195 2.47997C90.5315 2.43258 89.5651 2.4156 88.3831 2.52737C86.0345 2.73393 82.7501 3.63656 79.8618 5.84717C76.9757 8.06273 75.251 11.0012 74.4418 13.2154C74.0265 14.3281 73.7924 15.2654 73.6658 15.9183C73.537 16.5713 73.4847 16.9377 73.4613 16.9349C73.4521 16.9342 73.4556 16.8415 73.4712 16.6661C73.4917 16.4913 73.503 16.2303 73.5632 15.9007C73.6587 15.2378 73.8667 14.285 74.2642 13.151C75.0367 10.8958 76.762 7.89012 79.6991 5.63566C82.6376 3.38544 85.9879 2.49978 88.3661 2.33991C89.5644 2.25078 90.5385 2.29747 91.2035 2.3774C91.5374 2.40499 91.7928 2.46229 91.9668 2.48775C92.1415 2.51676 92.2313 2.53727 92.2299 2.54647Z" fill="white"/>
<path d="M72.2807 21.5046C72.2086 21.489 72.3019 20.7816 72.4894 19.9249C72.6769 19.0683 72.887 18.3864 72.9591 18.4026C73.0313 18.4182 72.9379 19.1256 72.7504 19.9822C72.5637 20.8382 72.3529 21.5201 72.2807 21.5046Z" fill="white"/>
</svg>
