<svg width="36" height="35" viewBox="0 0 36 35" fill="none" xmlns="http://www.w3.org/2000/svg">
<path d="M35.1596 14.0726H33.75V14H18V21H27.8901C26.4473 25.0749 22.5701 28 18 28C12.2014 28 7.5 23.2986 7.5 17.5C7.5 11.7014 12.2014 7 18 7C20.6766 7 23.1117 8.00975 24.9659 9.65912L29.9158 4.70925C26.7903 1.79638 22.6095 0 18 0C8.33562 0 0.5 7.83562 0.5 17.5C0.5 27.1644 8.33562 35 18 35C27.6644 35 35.5 27.1644 35.5 17.5C35.5 16.3266 35.3792 15.1813 35.1596 14.0726Z" fill="#FFC107"/>
<path d="M2.51562 9.36502L8.26705 13.5863C9.82328 9.7303 13.5922 7.00778 18.0027 7.00778C20.6802 7.00778 23.1161 8.01865 24.9708 9.66986L29.9222 4.71448C26.7957 1.79837 22.6137 0 18.0027 0C11.2789 0 5.44779 3.79909 2.51562 9.36502Z" fill="#FF3D00"/>
<path d="M17.9875 34.9982C22.4969 34.9982 26.5944 33.2735 29.6924 30.4688L24.289 25.8994C22.5362 27.2263 20.3574 28.0192 17.9875 28.0192C13.4466 28.0192 9.59096 25.1256 8.13844 21.0874L2.44531 25.471C5.33465 31.1214 11.2024 34.9982 17.9875 34.9982Z" fill="#4CAF50"/>
<path d="M35.2685 13.9126L33.7435 13.9852L18.0078 13.9852V20.9814H27.8889C27.1966 22.9377 25.9386 24.6247 24.3161 25.8534L24.3187 25.8517L29.73 30.4324C29.3471 30.7805 35.4919 26.2286 35.4919 17.4833C35.4919 16.3106 35.4919 14.9991 35.2685 13.9126Z" fill="#1976D2"/>
</svg>
